<?xml version="1.0" standalone="no"?>
<!DOCTYPE svg PUBLIC "-//W3C//DTD SVG 20010904//EN"
 "http://www.w3.org/TR/2001/REC-SVG-20010904/DTD/svg10.dtd">
<svg version="1.0" xmlns="http://www.w3.org/2000/svg"
 width="1024.000000pt" height="1024.000000pt" viewBox="0 0 1024.000000 1024.000000"
 preserveAspectRatio="xMidYMid meet">

<g transform="translate(0.000000,1024.000000) scale(0.100000,-0.100000)"
fill="#000000" stroke="none">
<path d="M8518 9493 c-14 -17 -38 -52 -149 -213 -178 -257 -970 -1428 -1414
-2090 -164 -245 -344 -512 -400 -595 -185 -273 -749 -1105 -949 -1400 -108
-159 -272 -401 -364 -537 -92 -136 -170 -246 -174 -245 -4 1 -52 74 -106 162
-54 88 -197 318 -317 510 -120 193 -270 436 -335 540 -64 105 -249 401 -410
660 -161 258 -340 546 -398 640 -247 400 -285 461 -300 478 -12 14 -32 17
-117 17 -65 0 -105 -4 -113 -12 -17 -17 -17 -5909 0 -5926 18 -18 222 -16 237
2 8 9 12 734 13 2700 l3 2686 41 -67 c23 -38 110 -178 194 -313 84 -135 257
-414 385 -620 128 -206 301 -485 385 -620 84 -135 210 -337 280 -450 70 -113
194 -311 275 -440 81 -129 387 -617 680 -1085 293 -467 592 -944 665 -1060 73
-115 180 -286 238 -380 58 -93 134 -214 168 -268 l64 -98 147 3 c92 2 148 7
150 14 2 5 -40 80 -93 165 -128 204 -442 702 -678 1074 -197 311 -452 715
-683 1084 -134 212 -135 215 -119 240 43 68 554 927 776 1306 68 116 191 325
275 465 83 140 177 298 207 350 30 52 163 280 295 505 132 226 407 696 611
1045 203 349 418 716 477 815 59 99 200 335 312 525 113 190 218 367 234 394
30 50 34 70 7 39z"/>
</g>
</svg>
